<svg xmlns="http://www.w3.org/2000/svg" data-name="Layer 1" viewBox="0 0 48 48" id="typing"><path fill="#2d96f2" d="M24,20a1,1,0,0,1-1-1,4,4,0,0,1,4-4H38a1,1,0,0,0,0-2H10a3,3,0,0,1,0-6H22a1,1,0,0,0,1-1,1,1,0,0,1,2,0,3,3,0,0,1-3,3H10a1,1,0,0,0,0,2H38a3,3,0,0,1,0,6H27a2,2,0,0,0-2,2A1,1,0,0,1,24,20Z"></path><rect width="36" height="20" x="6" y="22" fill="#ebf3fe" rx="1" ry="1"></rect><path fill="#48bbfb" d="M11 39H10a1 1 0 0 1 0-2h1a1 1 0 0 1 0 2zM38 39H37a1 1 0 0 1 0-2h1a1 1 0 0 1 0 2zM33 39H15a1 1 0 0 1 0-2H33a1 1 0 0 1 0 2zM12 35H10a1 1 0 0 1 0-2h2a1 1 0 0 1 0 2zM38 35H36a1 1 0 0 1 0-2h2a1 1 0 0 1 0 2zM17 35H16a1 1 0 0 1 0-2h1a1 1 0 0 1 0 2zM32 35H31a1 1 0 0 1 0-2h1a1 1 0 0 1 0 2zM27 35H26a1 1 0 0 1 0-2h1a1 1 0 0 1 0 2zM22 35H21a1 1 0 0 1 0-2h1a1 1 0 0 1 0 2zM11 31H10a1 1 0 0 1 0-2h1a1 1 0 0 1 0 2zM16 31H15a1 1 0 0 1 0-2h1a1 1 0 0 1 0 2zM21 31H20a1 1 0 0 1 0-2h1a1 1 0 0 1 0 2zM26 31H25a1 1 0 0 1 0-2h1a1 1 0 0 1 0 2zM31 31H30a1 1 0 0 1 0-2h1a1 1 0 0 1 0 2zM36 31H35a1 1 0 0 1 0-2h1a1 1 0 0 1 0 2zM13 27H12a1 1 0 0 1 0-2h1a1 1 0 0 1 0 2zM18 27H17a1 1 0 0 1 0-2h1a1 1 0 0 1 0 2zM23 27H22a1 1 0 0 1 0-2h1a1 1 0 0 1 0 2zM28 27H27a1 1 0 0 1 0-2h1a1 1 0 0 1 0 2zM33 27H32a1 1 0 0 1 0-2h1a1 1 0 0 1 0 2zM38 27H37a1 1 0 0 1 0-2h1a1 1 0 0 1 0 2z"></path><path fill="#b9d5ea" d="M24,19h0a3,3,0,0,1,3,3v0a0,0,0,0,1,0,0H21a0,0,0,0,1,0,0v0A3,3,0,0,1,24,19Z"></path></svg>